<?xml version="1.0" standalone="no"?>
<!DOCTYPE svg PUBLIC "-//W3C//DTD SVG 20010904//EN"
 "http://www.w3.org/TR/2001/REC-SVG-20010904/DTD/svg10.dtd">
<svg version="1.0" xmlns="http://www.w3.org/2000/svg"
 width="48.000000pt" height="48.000000pt" viewBox="0 0 48.000000 48.000000"
 preserveAspectRatio="xMidYMid meet">

<g transform="translate(0.000000,48.000000) scale(0.100000,-0.100000)"
fill="#000000" stroke="none">
<path d="M176 425 c-42 -15 -96 -61 -96 -82 0 -18 35 -16 51 3 50 60 166 58
222 -4 20 -21 47 -19 47 3 0 21 -66 73 -107 84 -49 14 -69 13 -117 -4z"/>
<path d="M50 280 c-12 -23 -6 -89 12 -125 27 -52 96 -105 138 -105 36 0 22 33
-22 55 -57 27 -82 65 -88 132 -5 60 -22 78 -40 43z"/>
<path d="M200 280 c-25 -25 -26 -50 -2 -50 10 0 23 -5 30 -12 9 -9 15 -9 24 0
7 7 20 12 30 12 10 0 18 7 18 15 0 22 -37 55 -60 55 -11 0 -29 -9 -40 -20z
m50 -40 c0 -5 -4 -10 -10 -10 -5 0 -10 5 -10 10 0 6 5 10 10 10 6 0 10 -4 10
-10z"/>
<path d="M397 293 c-4 -3 -7 -27 -7 -53 0 -60 -31 -108 -87 -135 -42 -20 -59
-55 -28 -55 94 0 196 153 155 231 -11 20 -22 24 -33 12z"/>
</g>
</svg>
